<svg width="86" height="87" viewBox="0 0 86 87" fill="none" xmlns="http://www.w3.org/2000/svg">
<path fill-rule="evenodd" clip-rule="evenodd" d="M80.0727 27.3065C80.893 27.3065 81.5581 27.9744 81.5581 28.7982C81.5581 29.6221 80.893 30.29 80.0727 30.29C79.2524 30.29 78.5874 29.6221 78.5874 28.7982C78.5874 27.9744 79.2524 27.3065 80.0727 27.3065Z" fill="#05633B"/>
<path d="M80.0727 27.3065C80.893 27.3065 81.5581 27.9744 81.5581 28.7982C81.5581 29.6221 80.893 30.29 80.0727 30.29C79.2524 30.29 78.5874 29.6221 78.5874 28.7982C78.5874 27.9744 79.2524 27.3065 80.0727 27.3065Z" stroke="#05633B" stroke-width="0.0868637" stroke-miterlimit="22.926"/>
<path fill-rule="evenodd" clip-rule="evenodd" d="M74.5169 20.8384C74.0591 21.2156 73.7961 21.6373 73.7305 22.1049C73.6637 22.5731 73.8111 23.0884 74.171 23.651C74.4184 24.0375 74.6791 24.3264 74.9535 24.5156C75.227 24.7056 75.5205 24.7993 75.8338 24.7986C76.1471 24.7978 76.4311 24.7148 76.6856 24.5513C76.9661 24.3715 77.1642 24.161 77.28 23.9198C77.3958 23.679 77.4411 23.4189 77.4179 23.1385C77.3941 22.8598 77.2956 22.4684 77.1188 21.9664C76.9431 21.4637 76.8667 21.1253 76.8905 20.9505C76.908 20.8136 76.9696 20.7112 77.0752 20.6435C77.191 20.5692 77.3137 20.5577 77.4433 20.6075C77.6444 20.6846 77.8281 20.8531 77.9939 21.1122C78.1544 21.3629 78.2245 21.5842 78.2042 21.774C78.1842 21.9638 78.072 22.1513 77.8669 22.3371L78.4749 23.2186C78.8785 22.9392 79.1133 22.5809 79.1801 22.1403C79.2478 21.7006 79.1024 21.2019 78.7462 20.6455C78.5275 20.3034 78.29 20.0465 78.032 19.8714C77.774 19.6964 77.5061 19.6082 77.2262 19.6065C76.9469 19.6061 76.6926 19.6787 76.466 19.8241C76.1132 20.0505 75.901 20.3782 75.8303 20.8082C75.7794 21.1141 75.8479 21.5452 76.0351 22.1021C76.1806 22.5351 76.269 22.8145 76.2987 22.943C76.3432 23.131 76.3479 23.2799 76.3136 23.3882C76.2782 23.4972 76.2091 23.5854 76.1034 23.6531C75.9401 23.7581 75.7503 23.7761 75.5347 23.7084C75.3189 23.6407 75.1188 23.4622 74.9344 23.1742C74.76 22.9017 74.6897 22.6412 74.7245 22.3923C74.7592 22.1433 74.9059 21.9001 75.1648 21.6592L74.5169 20.8384ZM70.0332 18.0275L74.0239 14.5655L76.5826 17.5239L75.9082 18.109L74.0495 15.9599L73.1634 16.7287L74.8916 18.7272L74.2174 19.3122L72.489 17.3137L71.4077 18.2518L73.334 20.4791L72.6597 21.0642L70.0332 18.0275ZM68.4712 16.481L72.114 12.6534L72.8879 13.3923L69.2452 17.2198L68.4712 16.481ZM65.8785 14.3126L66.7192 14.9742L69.4299 11.5191L70.6534 12.482L71.2046 11.7794L67.9114 9.18761L67.3601 9.89018L68.5893 10.8576L65.8785 14.3126ZM63.1483 12.3242L65.9984 7.87317L66.8985 8.45119L64.0484 12.9024L63.1483 12.3242ZM60.7674 7.47669L61.3792 6.28051L62.1196 6.66029C62.5036 6.85731 62.7316 6.98109 62.8038 7.03195C62.9439 7.13567 63.0317 7.25823 63.0662 7.39886C63.1001 7.54073 63.0775 7.68963 62.9965 7.8485C62.924 7.9899 62.832 8.09193 62.719 8.15306C62.6075 8.21465 62.4836 8.23548 62.3514 8.21603C62.2181 8.19611 61.9247 8.07033 61.4696 7.83701L60.7674 7.47669ZM58.4275 9.70328L59.379 10.1915L60.3841 8.22614L60.5767 8.3248C60.7955 8.43709 60.9462 8.53652 61.03 8.62384C61.1128 8.7104 61.1742 8.82499 61.2159 8.96532C61.2577 9.10718 61.3075 9.42293 61.3648 9.91301L61.5197 11.2895L62.6538 11.8714L62.5504 10.6594C62.5121 10.1779 62.4632 9.83059 62.4032 9.61871C62.3442 9.4073 62.2431 9.1893 62.0995 8.96501C62.5416 9.11576 62.924 9.1294 63.2483 9.00531C63.5727 8.88137 63.8247 8.64268 64.0056 8.2888C64.1478 8.01059 64.2049 7.7287 64.1792 7.4416C64.153 7.15574 64.048 6.91246 63.8625 6.71085C63.6782 6.50985 63.3348 6.27975 62.8326 6.02206L60.8342 4.99701L58.4275 9.70328ZM53.3267 7.77129L55.0193 2.76261L56.0321 3.10592L55.2823 5.3247L58.0727 3.79777L59.43 4.25783L56.8839 5.56875L57.8352 9.2996L56.529 8.85686L55.9478 6.03876L54.8514 6.60024L54.3395 8.11461L53.3267 7.77129ZM48.3953 4.97372L49.437 5.05507C49.4375 5.40896 49.5162 5.68181 49.6751 5.87668C49.8338 6.07139 50.0722 6.19656 50.3905 6.25339C50.7268 6.3136 50.9937 6.28771 51.1896 6.17511C51.3859 6.06266 51.5015 5.91084 51.5355 5.7195C51.5577 5.59587 51.5401 5.4851 51.4842 5.38506C51.4281 5.28625 51.3158 5.18866 51.1479 5.09368C51.0335 5.02811 50.7686 4.90325 50.3527 4.71635C49.8174 4.47537 49.4551 4.23301 49.2654 3.98789C48.9984 3.6438 48.9023 3.26525 48.976 2.85207C49.0234 2.58673 49.1429 2.3505 49.3328 2.14567C49.5242 1.941 49.771 1.80389 50.0745 1.73311C50.378 1.66248 50.7276 1.66249 51.1266 1.73388C51.7764 1.85015 52.2407 2.08194 52.5169 2.43032C52.7942 2.77869 52.8973 3.19478 52.8281 3.68119L51.769 3.52937C51.7722 3.25223 51.7111 3.0425 51.5856 2.8988C51.4602 2.7551 51.2506 2.65629 50.9578 2.60389C50.6553 2.54981 50.4069 2.57034 50.2139 2.66594C50.0893 2.72737 50.0146 2.82526 49.9902 2.961C49.9683 3.08448 50.0015 3.19922 50.0899 3.30508C50.2016 3.44143 50.5014 3.61516 50.9892 3.82734C51.4772 4.03844 51.831 4.23194 52.0512 4.40382C52.2724 4.57709 52.4322 4.78713 52.5301 5.03592C52.6281 5.28472 52.6478 5.57319 52.5892 5.90165C52.5361 6.19978 52.4039 6.46496 52.1915 6.69583C51.9795 6.92655 51.7114 7.07868 51.3865 7.15068C51.0614 7.22376 50.6726 7.21931 50.2214 7.13842C49.5645 7.02092 49.087 6.77917 48.7891 6.41211C48.4912 6.04612 48.3609 5.56645 48.3953 4.97372ZM44.7363 1.97317L44.6224 3.47544L45.2018 3.51956C45.6199 3.55143 45.9001 3.54423 46.0452 3.4998C46.1904 3.45522 46.3072 3.3777 46.3959 3.26479C46.4846 3.15296 46.5353 3.01983 46.5472 2.8628C46.5618 2.67007 46.5173 2.50738 46.4153 2.37379C46.3122 2.24005 46.1772 2.15073 46.0067 2.10569C45.8823 2.07275 45.6296 2.04119 45.2472 2.01208L44.7363 1.97317ZM43.3377 6.27362L43.7379 1.00097L45.4424 1.13073C46.0882 1.17991 46.5065 1.23767 46.6986 1.30538C46.994 1.40802 47.2334 1.59906 47.4166 1.87972C47.6 2.16023 47.6757 2.51044 47.644 2.93005C47.6193 3.25422 47.54 3.52094 47.4067 3.73297C47.2723 3.94499 47.1108 4.10677 46.9212 4.21953C46.7317 4.3309 46.5414 4.40045 46.352 4.42665C46.0947 4.45775 45.7262 4.4556 45.246 4.41899L44.5549 4.36645L44.4038 6.35466L43.3377 6.27362ZM40.599 4.31145L39.7193 2.41561L39.1566 4.42114L40.599 4.31145ZM42.7061 6.25447L41.5578 6.34194L41.0121 5.17625L38.9008 5.33681L38.5544 6.57052L37.427 6.65631L39.0708 1.22816L40.1971 1.14237L42.7061 6.25447ZM31.5805 8.07232C31.548 8.11844 31.521 8.16915 31.5003 8.22292C31.4797 8.27669 31.4648 8.33246 31.4548 8.38776C31.4466 8.44398 31.4433 8.4996 31.447 8.55291C31.4496 8.60668 31.4584 8.65571 31.4738 8.70105C31.499 8.77566 31.54 8.83188 31.5982 8.86942C31.6551 8.90726 31.7301 8.91048 31.8244 8.87846C31.8651 8.86467 31.9094 8.84184 31.9555 8.80937C32.0015 8.77689 32.0457 8.74625 32.0863 8.71683L32.2798 9.28934C32.1185 9.44545 31.9616 9.54932 31.8092 9.60094C31.6811 9.64445 31.5635 9.66483 31.4588 9.66253C31.3543 9.66038 31.2594 9.64047 31.1765 9.60232C31.0934 9.56417 31.0237 9.51117 30.9669 9.44345C30.9088 9.37467 30.8656 9.29715 30.8358 9.20845C30.7907 9.07562 30.784 8.92457 30.8157 8.75406C30.8463 8.5837 30.911 8.42146 31.0078 8.26643L31.5805 8.07232ZM27.2615 3.95419L28.1655 6.62873C28.355 7.18944 28.531 7.60277 28.6943 7.86704C28.8056 8.04628 28.9609 8.19902 29.1641 8.32771C29.367 8.45639 29.61 8.53376 29.893 8.56133C30.1761 8.58891 30.5554 8.52135 31.0316 8.35988C31.4262 8.22598 31.7277 8.06666 31.9391 7.8819C32.1493 7.6976 32.2991 7.49599 32.3867 7.27538C32.4755 7.05416 32.5047 6.81043 32.4754 6.54355C32.4462 6.27668 32.3291 5.84205 32.1257 5.24044L31.2356 2.6068L30.223 2.95012L31.1599 5.72256C31.2938 6.11889 31.3746 6.40736 31.4034 6.58859C31.4322 6.76983 31.3946 6.94248 31.2898 7.10916C31.1854 7.27584 30.991 7.40683 30.7081 7.50273C30.4287 7.59741 30.1879 7.61012 29.9838 7.54026C29.7815 7.47117 29.6243 7.34003 29.5118 7.14946C29.4444 7.03057 29.3375 6.75635 29.1916 6.32494L28.2743 3.61071L27.2615 3.95419ZM26.9465 9.95085L24.7717 5.13259L25.7459 4.69153L27.9209 9.50979L26.9465 9.95085ZM23.013 12.1525L26.2344 10.2968L25.7897 9.5222L23.4949 10.844L21.3298 7.07316L20.4029 7.60706L23.013 12.1525ZM15.3293 11.2533L16.17 10.5915L17.938 12.8445C18.2189 13.2025 18.411 13.4254 18.5141 13.5149C18.6834 13.6572 18.8754 13.7284 19.0892 13.726C19.3046 13.7238 19.5277 13.6315 19.7595 13.4488C19.9943 13.2641 20.1342 13.0756 20.1773 12.8835C20.2203 12.6916 20.1984 12.5162 20.1109 12.355C20.0234 12.1937 19.8516 11.9487 19.5933 11.6196L17.7874 9.31829L18.628 8.65663L20.3435 10.8426C20.7354 11.342 20.9903 11.7128 21.1067 11.9547C21.223 12.1964 21.2766 12.436 21.2667 12.6741C21.2575 12.9116 21.1832 13.1516 21.0464 13.3955C20.9086 13.6402 20.6771 13.8911 20.3498 14.149C19.9545 14.4601 19.6193 14.6504 19.3432 14.719C19.0672 14.7875 18.8124 14.7956 18.5782 14.742C18.3439 14.6884 18.1466 14.5963 17.9822 14.4645C17.7403 14.2698 17.4368 13.9388 17.0715 13.4734L15.3293 11.2533ZM15.1928 15.8493L14.1948 16.898L13.2721 15.0311L15.1928 15.8493ZM18.0567 15.8795L12.7758 13.765L11.9966 14.5839L14.4043 19.718L15.1842 18.8984L14.6169 17.7497L16.0778 16.2145L17.2623 16.7144L18.0567 15.8795ZM13.4183 21.0138L14.0789 20.1718L9.92764 16.9047L9.26705 17.7467L13.4183 21.0138ZM5.27393 20.9472L6.57504 20.885L7.07999 20.0964L6.5873 18.8955L6.14961 19.5794L6.37788 20.2216L5.71575 20.2572L5.27393 20.9472ZM9.04246 24.5426L9.51661 23.6102C9.84323 23.7453 10.1251 23.7772 10.3655 23.7049C10.606 23.6326 10.8128 23.4599 10.9872 23.1874C11.1716 22.8994 11.2499 22.6425 11.2213 22.4182C11.1928 22.1936 11.0972 22.0283 10.9335 21.9233C10.8281 21.8556 10.7192 21.8296 10.6057 21.8429C10.4929 21.8569 10.36 21.9235 10.208 22.0421C10.1037 22.123 9.88705 22.3201 9.55522 22.6333C9.12795 23.036 8.76563 23.2784 8.46659 23.3599C8.04698 23.4749 7.66122 23.4187 7.30841 23.1921C7.08183 23.0467 6.90978 22.8456 6.79366 22.5913C6.67845 22.3359 6.64659 22.0551 6.6976 21.7473C6.74862 21.4394 6.88267 21.116 7.10159 20.7742C7.45777 20.2176 7.8495 19.8771 8.27647 19.755C8.7042 19.6319 9.12733 19.6961 9.5494 19.9466L9.0034 20.8681C8.74924 20.7589 8.53231 20.7351 8.35169 20.7961C8.17107 20.8571 7.99964 21.0132 7.83909 21.2638C7.67332 21.5229 7.59703 21.7605 7.61112 21.9757C7.62001 22.1145 7.6816 22.2213 7.79757 22.2958C7.90312 22.3635 8.02154 22.3768 8.15314 22.3354C8.32166 22.2843 8.59665 22.0735 8.9795 21.7037C9.36112 21.3332 9.67502 21.08 9.91799 20.9421C10.1627 20.8039 10.4176 20.7365 10.6844 20.7413C10.9516 20.746 11.2252 20.8385 11.5056 21.0185C11.7601 21.182 11.954 21.4058 12.0854 21.6906C12.217 21.9754 12.2546 22.2818 12.1964 22.6098C12.1392 22.9387 11.986 23.2965 11.7386 23.683C11.3784 24.2457 10.9725 24.5948 10.5199 24.7295C10.0681 24.8649 9.57575 24.8016 9.04246 24.5426Z" fill="#05633B"/>
<path d="M74.5169 20.8384C74.0591 21.2156 73.7961 21.6373 73.7305 22.1049C73.6637 22.5731 73.8111 23.0884 74.171 23.651C74.4184 24.0375 74.6791 24.3264 74.9535 24.5156C75.227 24.7056 75.5205 24.7993 75.8338 24.7986C76.1471 24.7978 76.4311 24.7148 76.6856 24.5513C76.9661 24.3715 77.1642 24.161 77.28 23.9198C77.3958 23.679 77.4411 23.4189 77.4179 23.1385C77.3941 22.8598 77.2956 22.4684 77.1188 21.9664C76.9431 21.4637 76.8666 21.1253 76.8905 20.9505C76.908 20.8136 76.9696 20.7112 77.0752 20.6435C77.191 20.5692 77.3137 20.5577 77.4433 20.6075C77.6444 20.6846 77.8281 20.8531 77.9939 21.1122C78.1544 21.3629 78.2245 21.5842 78.2042 21.774C78.1842 21.9638 78.072 22.1513 77.8669 22.3371L78.4749 23.2186C78.8785 22.9392 79.1133 22.5809 79.1801 22.1403C79.2478 21.7006 79.1024 21.2019 78.7462 20.6455C78.5275 20.3034 78.29 20.0465 78.032 19.8714C77.774 19.6964 77.5061 19.6082 77.2262 19.6065C76.9469 19.6061 76.6926 19.6787 76.466 19.8241C76.1132 20.0505 75.901 20.3782 75.8303 20.8082C75.7794 21.1141 75.8479 21.5452 76.0351 22.1021C76.1806 22.5351 76.269 22.8145 76.2987 22.943C76.3432 23.131 76.3479 23.2799 76.3136 23.3882C76.2782 23.4972 76.2091 23.5854 76.1034 23.6531C75.9401 23.7581 75.7503 23.7761 75.5347 23.7084C75.3189 23.6407 75.1188 23.4622 74.9344 23.1742C74.76 22.9017 74.6897 22.6412 74.7245 22.3923C74.7593 22.1433 74.9059 21.9001 75.1648 21.6592L74.5169 20.8384ZM70.0332 18.0275L74.0239 14.5655L76.5826 17.5239L75.9082 18.109L74.0495 15.9599L73.1634 16.7287L74.8916 18.7272L74.2174 19.3122L72.489 17.3137L71.4077 18.2518L73.334 20.4791L72.6597 21.0642L70.0332 18.0275ZM68.4712 16.481L72.114 12.6534L72.8879 13.3923L69.2452 17.2198L68.4712 16.481ZM65.8785 14.3126L66.7192 14.9742L69.4299 11.5191L70.6534 12.482L71.2046 11.7794L67.9114 9.18761L67.3601 9.89018L68.5893 10.8576L65.8785 14.3126ZM63.1483 12.3242L65.9984 7.87317L66.8985 8.45119L64.0484 12.9024L63.1483 12.3242ZM60.7674 7.47669L61.3792 6.28051L62.1196 6.66029C62.5036 6.8573 62.7316 6.98109 62.8038 7.03195C62.9439 7.13567 63.0317 7.25823 63.0662 7.39886C63.1001 7.54072 63.0775 7.68963 62.9965 7.8485C62.924 7.9899 62.832 8.09193 62.719 8.15306C62.6075 8.21465 62.4836 8.23548 62.3514 8.21603C62.2181 8.19611 61.9247 8.07033 61.4696 7.83701L60.7674 7.47669ZM58.4275 9.70328L59.379 10.1915L60.3841 8.22614L60.5767 8.3248C60.7955 8.43709 60.9462 8.53652 61.03 8.62384C61.1128 8.7104 61.1742 8.82499 61.2159 8.96532C61.2577 9.10718 61.3075 9.42293 61.3648 9.91301L61.5197 11.2895L62.6538 11.8714L62.5504 10.6594C62.5121 10.1779 62.4632 9.83059 62.4032 9.61871C62.3442 9.4073 62.2431 9.1893 62.0995 8.96501C62.5416 9.11576 62.924 9.1294 63.2483 9.00531C63.5727 8.88137 63.8247 8.64268 64.0056 8.28879C64.1478 8.01059 64.2049 7.7287 64.1792 7.44161C64.153 7.15574 64.048 6.91246 63.8625 6.71085C63.6782 6.50985 63.3347 6.27975 62.8326 6.02206L60.8342 4.99701L58.4275 9.70328ZM53.3267 7.77129L55.0193 2.76261L56.0321 3.10592L55.2823 5.3247L58.0727 3.79777L59.43 4.25783L56.8839 5.56875L57.8352 9.2996L56.529 8.85686L55.9478 6.03876L54.8514 6.60024L54.3395 8.11461L53.3267 7.77129ZM48.3953 4.97372L49.437 5.05507C49.4375 5.40896 49.5162 5.68181 49.6751 5.87668C49.8338 6.07139 50.0722 6.19656 50.3905 6.25339C50.7268 6.3136 50.9937 6.28771 51.1896 6.17511C51.3859 6.06266 51.5015 5.91084 51.5355 5.7195C51.5577 5.59586 51.5401 5.4851 51.4842 5.38506C51.4281 5.28625 51.3158 5.18866 51.1479 5.09368C51.0335 5.02811 50.7686 4.90325 50.3527 4.71635C49.8174 4.47537 49.4551 4.23301 49.2654 3.98789C48.9984 3.64381 48.9023 3.26525 48.976 2.85207C49.0234 2.58673 49.1429 2.3505 49.3328 2.14567C49.5242 1.941 49.771 1.80389 50.0745 1.73311C50.378 1.66248 50.7276 1.66248 51.1266 1.73388C51.7764 1.85015 52.2407 2.08194 52.5169 2.43032C52.7942 2.77869 52.8973 3.19478 52.8281 3.68119L51.769 3.52937C51.7722 3.25223 51.7111 3.0425 51.5856 2.8988C51.4602 2.7551 51.2506 2.65629 50.9578 2.60389C50.6552 2.54981 50.4069 2.57034 50.2139 2.66594C50.0893 2.72737 50.0146 2.82526 49.9902 2.961C49.9683 3.08448 50.0015 3.19922 50.0899 3.30508C50.2016 3.44143 50.5014 3.61516 50.9892 3.82734C51.4772 4.03845 51.831 4.23194 52.0512 4.40382C52.2724 4.57709 52.4322 4.78713 52.5301 5.03592C52.6281 5.28472 52.6478 5.57319 52.5892 5.90165C52.5361 6.19977 52.4039 6.46496 52.1915 6.69583C51.9795 6.92655 51.7114 7.07868 51.3865 7.15068C51.0614 7.22376 50.6726 7.21931 50.2214 7.13842C49.5645 7.02092 49.087 6.77917 48.7891 6.41211C48.4912 6.04612 48.3609 5.56645 48.3953 4.97372ZM44.7363 1.97317L44.6224 3.47544L45.2018 3.51956C45.6199 3.55143 45.9001 3.54423 46.0452 3.4998C46.1904 3.45522 46.3072 3.3777 46.3959 3.26479C46.4846 3.15296 46.5353 3.01983 46.5472 2.8628C46.5618 2.67007 46.5173 2.50738 46.4153 2.37379C46.3122 2.24004 46.1772 2.15073 46.0067 2.10569C45.8823 2.07275 45.6296 2.04119 45.2472 2.01208L44.7363 1.97317ZM43.3377 6.27362L43.7379 1.00097L45.4424 1.13073C46.0882 1.17991 46.5065 1.23766 46.6986 1.30538C46.994 1.40802 47.2334 1.59906 47.4166 1.87972C47.6 2.16023 47.6757 2.51044 47.644 2.93005C47.6193 3.25422 47.54 3.52094 47.4067 3.73297C47.2723 3.94499 47.1108 4.10677 46.9212 4.21953C46.7317 4.3309 46.5414 4.40045 46.352 4.42665C46.0947 4.45775 45.7262 4.45561 45.246 4.41899L44.5549 4.36645L44.4038 6.35466L43.3377 6.27362ZM40.599 4.31145L39.7193 2.41561L39.1566 4.42114L40.599 4.31145ZM42.7061 6.25447L41.5578 6.34194L41.0121 5.17625L38.9008 5.33681L38.5544 6.57052L37.427 6.65631L39.0708 1.22816L40.1971 1.14237L42.7061 6.25447ZM31.5805 8.07232C31.548 8.11844 31.521 8.16915 31.5003 8.22292C31.4797 8.27669 31.4648 8.33246 31.4548 8.38776C31.4466 8.44398 31.4434 8.4996 31.447 8.55291C31.4496 8.60668 31.4584 8.65571 31.4738 8.70105C31.499 8.77566 31.54 8.83188 31.5982 8.86942C31.6551 8.90726 31.7301 8.91048 31.8244 8.87846C31.8651 8.86467 31.9094 8.84184 31.9555 8.80936C32.0015 8.77689 32.0457 8.74625 32.0863 8.71683L32.2798 9.28934C32.1185 9.44545 31.9616 9.54932 31.8092 9.60094C31.6811 9.64445 31.5635 9.66483 31.4588 9.66253C31.3543 9.66038 31.2594 9.64047 31.1765 9.60232C31.0934 9.56417 31.0237 9.51117 30.9669 9.44345C30.9088 9.37467 30.8656 9.29715 30.8358 9.20845C30.7907 9.07562 30.784 8.92457 30.8157 8.75406C30.8463 8.5837 30.911 8.42146 31.0078 8.26643L31.5805 8.07232ZM27.2615 3.95419L28.1655 6.62873C28.355 7.18944 28.531 7.60277 28.6943 7.86704C28.8056 8.04628 28.9609 8.19902 29.1641 8.32771C29.367 8.45639 29.61 8.53376 29.893 8.56134C30.1761 8.58891 30.5554 8.52135 31.0316 8.35988C31.4262 8.22598 31.7277 8.06666 31.9391 7.8819C32.1493 7.6976 32.2991 7.49599 32.3867 7.27538C32.4755 7.05417 32.5047 6.81043 32.4754 6.54355C32.4462 6.27668 32.3291 5.84206 32.1257 5.24044L31.2356 2.6068L30.223 2.95012L31.1599 5.72256C31.2938 6.11889 31.3746 6.40736 31.4034 6.58859C31.4322 6.76983 31.3946 6.94248 31.2898 7.10916C31.1854 7.27584 30.991 7.40683 30.7081 7.50273C30.4287 7.59741 30.1879 7.61012 29.9838 7.54026C29.7815 7.47117 29.6243 7.34003 29.5118 7.14946C29.4444 7.03057 29.3375 6.75635 29.1916 6.32494L28.2743 3.61071L27.2615 3.95419ZM26.9465 9.95085L24.7717 5.13259L25.7459 4.69153L27.9208 9.50979L26.9465 9.95085ZM23.013 12.1525L26.2344 10.2968L25.7897 9.5222L23.4949 10.844L21.3298 7.07316L20.4029 7.60706L23.013 12.1525ZM15.3293 11.2533L16.17 10.5915L17.938 12.8445C18.2189 13.2025 18.411 13.4254 18.5141 13.5149C18.6834 13.6572 18.8754 13.7284 19.0892 13.726C19.3046 13.7238 19.5277 13.6315 19.7595 13.4488C19.9943 13.2641 20.1342 13.0756 20.1773 12.8835C20.2203 12.6916 20.1984 12.5162 20.1109 12.355C20.0234 12.1937 19.8516 11.9487 19.5933 11.6196L17.7874 9.31829L18.628 8.65663L20.3435 10.8426C20.7354 11.342 20.9903 11.7128 21.1067 11.9547C21.223 12.1964 21.2766 12.436 21.2667 12.6741C21.2575 12.9116 21.1832 13.1516 21.0464 13.3955C20.9086 13.6402 20.6771 13.8911 20.3498 14.149C19.9545 14.4601 19.6193 14.6504 19.3432 14.719C19.0672 14.7875 18.8124 14.7956 18.5782 14.742C18.3439 14.6884 18.1466 14.5963 17.9822 14.4645C17.7403 14.2698 17.4368 13.9388 17.0715 13.4734L15.3293 11.2533ZM15.1928 15.8493L14.1948 16.898L13.2721 15.0311L15.1928 15.8493ZM18.0567 15.8795L12.7758 13.765L11.9966 14.5839L14.4043 19.718L15.1842 18.8984L14.6169 17.7497L16.0778 16.2145L17.2623 16.7144L18.0567 15.8795ZM13.4183 21.0138L14.0789 20.1718L9.92764 16.9047L9.26705 17.7467L13.4183 21.0138ZM5.27393 20.9472L6.57504 20.885L7.07999 20.0964L6.5873 18.8955L6.14961 19.5794L6.37788 20.2216L5.71575 20.2572L5.27393 20.9472ZM9.04246 24.5426L9.51661 23.6102C9.84323 23.7453 10.1251 23.7772 10.3655 23.7049C10.606 23.6326 10.8128 23.4599 10.9872 23.1874C11.1716 22.8994 11.2499 22.6425 11.2213 22.4182C11.1928 22.1936 11.0972 22.0283 10.9335 21.9233C10.8281 21.8556 10.7192 21.8296 10.6057 21.8429C10.4929 21.8569 10.36 21.9235 10.208 22.0421C10.1037 22.123 9.88705 22.3201 9.55522 22.6333C9.12795 23.036 8.76563 23.2784 8.46659 23.3599C8.04698 23.4749 7.66122 23.4187 7.30841 23.1921C7.08183 23.0467 6.90978 22.8456 6.79366 22.5913C6.67845 22.3359 6.64659 22.0551 6.6976 21.7473C6.74862 21.4394 6.88267 21.116 7.10159 20.7742C7.45777 20.2176 7.8495 19.8771 8.27647 19.755C8.7042 19.6319 9.12733 19.6961 9.5494 19.9466L9.0034 20.8681C8.74924 20.7589 8.53231 20.7351 8.35169 20.7961C8.17107 20.8571 7.99964 21.0132 7.83909 21.2638C7.67332 21.5229 7.59703 21.7605 7.61112 21.9757C7.62001 22.1145 7.6816 22.2213 7.79757 22.2958C7.90312 22.3635 8.02154 22.3768 8.15314 22.3354C8.32166 22.2843 8.59665 22.0735 8.9795 21.7037C9.36112 21.3332 9.67502 21.08 9.91799 20.9421C10.1627 20.8039 10.4176 20.7365 10.6844 20.7413C10.9516 20.746 11.2252 20.8385 11.5056 21.0185C11.7601 21.182 11.954 21.4058 12.0854 21.6906C12.217 21.9754 12.2546 22.2818 12.1964 22.6098C12.1392 22.9387 11.986 23.2965 11.7386 23.683C11.3784 24.2457 10.9725 24.5948 10.5199 24.7295C10.0681 24.8649 9.57575 24.8016 9.04246 24.5426Z" stroke="#05633B" stroke-width="0.0330909" stroke-miterlimit="22.926"/>
<path fill-rule="evenodd" clip-rule="evenodd" d="M82.476 35.617L80.6884 36.6963L82.7398 37.0414L82.476 35.617ZM84.1788 33.3103L84.3886 34.4444L83.2901 35.1126L83.6761 37.198L84.9379 37.4106L85.1439 38.5241L79.5793 37.4693L79.3734 36.3571L84.1788 33.3103ZM85.4555 43.4349L80.1913 43.8366L80.1101 42.7689L82.442 42.5909L79.9463 40.6174L79.8376 39.1864L82.0389 41.0194L85.094 38.6816L85.1986 40.0587L82.8374 41.6979L83.7826 42.4886L85.3743 42.3672L85.4555 43.4349ZM85.1251 48.3977L85.4296 44.3917L84.54 44.324L84.3167 47.2622L82.8902 47.1533L83.0908 44.5171L82.2011 44.449L82.0006 47.0853L80.8317 46.9961L81.0472 44.161L80.1576 44.0933L79.8609 47.9962L85.1251 48.3977ZM84.5823 51.8167L80.2685 51.0158L79.9834 52.5551L79.1064 52.3924L79.8696 48.2678L80.747 48.4307L80.4632 49.963L84.7772 50.7639L84.5823 51.8167ZM80.4156 56.8503C79.8411 56.6498 79.4561 56.3722 79.2591 56.0182C79.0633 55.6643 79.0373 55.2787 79.1819 54.8624C79.3268 54.4451 79.5834 54.1605 79.9526 54.0079C80.3212 53.8536 80.792 53.8767 81.3642 54.0764C81.9433 54.2784 82.3324 54.5588 82.533 54.918C82.7318 55.2781 82.7621 55.6586 82.622 56.062C82.4821 56.4643 82.2203 56.7457 81.838 56.9058C81.4547 57.0653 80.9807 57.0474 80.4156 56.8503ZM80.0879 57.9011C80.8841 58.1787 81.585 58.1769 82.1899 57.8965C82.7962 57.6165 83.228 57.1037 83.4863 56.3609C83.7412 55.6273 83.7176 54.9611 83.414 54.3638C83.1113 53.7669 82.5564 53.3271 81.7498 53.0458C80.9362 52.7619 80.2246 52.7615 79.6138 53.0438C79.0037 53.3275 78.5706 53.836 78.3143 54.573C78.1729 54.9799 78.1141 55.3622 78.1372 55.7194C78.1545 55.9875 78.2294 56.2547 78.3632 56.5216C78.4968 56.7884 78.6713 57.0239 78.8862 57.2254C79.1791 57.4982 79.5797 57.7239 80.0879 57.9011ZM81.78 60.5257L76.961 58.3656L77.3979 57.3882L82.2168 59.5483L81.78 60.5257ZM79.8267 64.6148L75.1532 62.2515L75.6352 61.2957L79.512 63.256L80.705 60.8894L81.5016 61.292L79.8267 64.6148ZM75.5331 66.9054L76.0376 66.206C76.322 65.812 76.5279 65.5706 76.6535 65.4823C76.7793 65.3942 76.9106 65.351 77.0449 65.3539C77.1799 65.3561 77.3107 65.4037 77.4403 65.4975C77.5926 65.6078 77.6837 65.7359 77.7171 65.8829C77.7493 66.0294 77.7305 66.1752 77.6617 66.3212C77.618 66.4173 77.4838 66.6224 77.2592 66.9336L76.6806 67.7357L75.5331 66.9054ZM73.8357 65.677L74.194 65.1802C74.4871 64.7741 74.6697 64.5313 74.7416 64.4528C74.8623 64.3212 74.9905 64.2486 75.1256 64.2356C75.2608 64.2226 75.394 64.2627 75.5267 64.3586C75.664 64.4582 75.7444 64.5801 75.7678 64.7261C75.7913 64.8723 75.7579 65.0258 75.6683 65.1856C75.6194 65.2746 75.4732 65.4877 75.2306 65.824L74.8218 66.3906L73.8357 65.677ZM72.4983 66.0303L76.7777 69.1271L77.8307 67.6674C78.2247 67.1128 78.4658 66.7576 78.5545 66.603C78.6949 66.3537 78.7669 66.1112 78.7704 65.8753C78.7733 65.6375 78.7152 65.4071 78.5964 65.183C78.4775 64.9588 78.3207 64.777 78.1256 64.6357C77.8774 64.4562 77.6119 64.3704 77.3279 64.3773C77.0431 64.3854 76.7696 64.4914 76.505 64.6961C76.5547 64.4511 76.5358 64.2143 76.4462 63.9854C76.3575 63.7575 76.2121 63.5701 76.0128 63.4258C75.8285 63.2925 75.6297 63.2153 75.4179 63.1958C75.2061 63.1762 75.0084 63.2001 74.8237 63.2669C74.6401 63.3345 74.4741 63.4406 74.3243 63.5874C74.1761 63.7337 73.9802 63.9761 73.7346 64.3163L72.4983 66.0303ZM75.4449 70.8651L76.0928 70.0133L71.8933 66.8089L71.2453 67.6607L75.4449 70.8651ZM70.8091 72.4264L71.8311 73.4078L72.5148 72.6932C72.7802 72.416 72.9415 72.2315 72.9979 72.1425C73.0863 72.0074 73.1249 71.8655 73.1131 71.716C73.1003 71.5657 73.0279 71.4263 72.8922 71.2959C72.7766 71.1852 72.6538 71.1199 72.5203 71.0992C72.3877 71.0776 72.2519 71.1023 72.1151 71.1721C71.9783 71.2421 71.7412 71.4526 71.4052 71.8036L70.8091 72.4264ZM69.2973 70.9751L70.1756 71.8183L70.6587 71.3137C70.9451 71.0142 71.1195 70.8233 71.1803 70.7418C71.2911 70.596 71.3453 70.4484 71.3422 70.3006C71.3392 70.1527 71.2764 70.0208 71.154 69.9033C71.0358 69.79 70.9094 69.7318 70.7737 69.7259C70.6381 69.72 70.501 69.7743 70.3636 69.8877C70.2815 69.9557 70.067 70.171 69.7208 70.5325L69.2973 70.9751ZM67.9241 71.14L69.3851 69.6135C69.675 69.3105 69.9026 69.0975 70.0696 68.973C70.238 68.8484 70.4171 68.7663 70.6083 68.7248C70.8005 68.6842 70.9995 68.6879 71.2065 68.7366C71.4136 68.7853 71.6002 68.8893 71.7641 69.0468C71.9416 69.2172 72.06 69.4228 72.1162 69.661C72.1733 69.9 72.1592 70.1371 72.0764 70.3729C72.3668 70.2067 72.6521 70.1397 72.9353 70.1711C73.2175 70.2035 73.4688 70.3252 73.6896 70.5373C73.8634 70.7043 73.9938 70.9062 74.0805 71.1444C74.1674 71.3829 74.1933 71.6192 74.1573 71.854C74.1214 72.0873 74.0166 72.3178 73.8434 72.5449C73.7341 72.6857 73.4463 73.0044 72.9796 73.4991L71.7355 74.7991L67.9241 71.14ZM66.8086 78.6087L67.6806 77.989L64.6251 73.6769L63.7531 74.2965L66.8086 78.6087ZM62.252 75.2552L63.1758 74.7159L64.8604 77.6105C65.0805 77.989 65.2173 78.2996 65.2693 78.5428C65.3347 78.8607 65.2978 79.1688 65.1571 79.4674C65.0171 79.7643 64.7551 80.0255 64.3708 80.2499C63.9207 80.5128 63.5015 80.5893 63.1127 80.4785C62.7228 80.3685 62.3855 80.0698 62.0999 79.5838L62.9134 78.9723C63.0755 79.2267 63.2198 79.389 63.3482 79.4579C63.5421 79.5639 63.7394 79.5584 63.9412 79.4407C64.144 79.3223 64.2543 79.1797 64.2695 79.0125C64.2853 78.8466 64.186 78.5784 63.9706 78.2082L62.252 75.2552ZM57.7089 80.503C57.9556 81.0492 58.269 81.4057 58.6486 81.574C59.0276 81.7413 59.4119 81.7376 59.7993 81.5619C60.1878 81.3861 60.4424 81.1016 60.5659 80.7094C60.6879 80.3163 60.6228 79.8406 60.3698 79.2811C60.1201 78.7281 59.8128 78.3702 59.4473 78.209C59.0823 78.046 58.6997 78.056 58.2977 78.2381C57.8969 78.4198 57.6355 78.7043 57.5144 79.0902C57.3938 79.4772 57.4581 79.948 57.7089 80.503ZM56.7226 80.9891C56.5008 80.498 56.3882 80.0518 56.3841 79.6512C56.3816 79.3563 56.4318 79.0674 56.5328 78.7866C56.6339 78.5056 56.7758 78.2671 56.9578 78.0698C57.2006 77.8072 57.5177 77.5864 57.9096 77.4089C58.6194 77.0871 59.2858 77.0513 59.9115 77.2987C60.5365 77.5478 61.0264 78.0647 61.3816 78.8509C61.7336 79.6304 61.7975 80.3362 61.574 80.9671C61.3509 81.599 60.8849 82.0751 60.1783 82.3955C59.4629 82.7195 58.7942 82.7592 58.1739 82.5119C57.5543 82.2659 57.0701 81.7585 56.7226 80.9891ZM52.0191 77.9326L52.8073 77.7116L53.3253 78.1263L53.5814 77.4946L54.3623 77.2756L53.9327 78.5004L53.0322 78.753L52.0191 77.9326ZM52.4456 83.1279C52.6716 83.6767 52.9973 84.0519 53.4246 84.2518C53.852 84.4526 54.387 84.4624 55.0296 84.2821C55.4711 84.1585 55.823 83.9932 56.0841 83.7859C56.3454 83.5796 56.5209 83.3259 56.6119 83.0256C56.7027 82.7253 56.7065 82.4289 56.625 82.1373C56.5353 81.8161 56.3923 81.5648 56.1961 81.3833C55.9998 81.2019 55.7648 81.0824 55.4903 81.0227C55.2173 80.9638 54.8147 80.9436 54.2838 80.9661C53.7524 80.9873 53.4069 80.9614 53.2472 80.8874C53.1215 80.8306 53.0419 80.7417 53.008 80.6208C52.9709 80.4882 52.9958 80.3673 53.0814 80.2577C53.2138 80.0875 53.4285 79.9608 53.7244 79.878C54.0107 79.7977 54.2423 79.7954 54.4177 79.87C54.593 79.9451 54.7392 80.1071 54.8567 80.3581L55.8762 80.0338C55.7274 79.5654 55.454 79.2358 55.0529 79.0427C54.6531 78.8494 54.1343 78.8426 53.4989 79.0208C53.1084 79.1304 52.7934 79.2826 52.5509 79.4786C52.3082 79.6744 52.1458 79.9054 52.0623 80.1729C51.9799 80.4401 51.9748 80.7048 52.0475 80.9643C52.1604 81.3686 52.4111 81.6676 52.8009 81.8611C53.0782 81.9995 53.5099 82.06 54.0962 82.0437C54.5521 82.031 54.8449 82.0281 54.9763 82.0373C55.1687 82.0499 55.3121 82.0888 55.4057 82.1534C55.4993 82.2191 55.5632 82.3111 55.5972 82.4319C55.6495 82.6193 55.6113 82.8064 55.4834 82.9931C55.3558 83.1797 55.1267 83.3193 54.7977 83.4116C54.4865 83.4988 54.2172 83.4899 53.9899 83.3838C53.7622 83.2776 53.573 83.0662 53.4189 82.7477L52.4456 83.1279ZM48.259 85.7207L47.2964 80.5214L51.139 79.8078L51.3018 80.6864L48.5105 81.2048L48.7243 82.3593L51.3198 81.8774L51.4823 82.756L48.8868 83.2381L49.1475 84.6467L52.0404 84.1095L52.2031 84.9882L48.259 85.7207ZM46.0963 85.7945L45.6954 80.5219L46.7615 80.4407L47.1624 85.7132L46.0963 85.7945ZM42.4799 85.999L40.4224 80.7748L41.5771 80.7376L43.0427 84.6066L44.2032 80.6531L45.3381 80.6165L43.6307 85.9621L42.4799 85.999ZM32.7954 81.9903C32.9336 81.3968 33.1683 80.9841 33.4992 80.7503C33.8295 80.5179 34.2097 80.4509 34.6382 80.5511C35.068 80.6513 35.3776 80.8765 35.5685 81.2283C35.7606 81.5789 35.7874 82.0502 35.6498 82.6412C35.5107 83.2395 35.2736 83.6566 34.938 83.8944C34.6018 84.1306 34.2271 84.2011 33.8117 84.1041C33.3975 84.0074 33.0903 83.7766 32.891 83.4129C32.692 83.048 32.6597 82.5741 32.7954 81.9903ZM31.7175 81.7753C31.5262 82.5977 31.6023 83.2954 31.9449 83.8682C32.2869 84.4422 32.8418 84.8182 33.6066 84.9966C34.3619 85.173 35.0209 85.0789 35.5816 84.7131C36.1422 84.3486 36.5201 83.7493 36.7141 82.9161C36.9094 82.0758 36.8345 81.3669 36.4896 80.7884C36.1433 80.211 35.5925 79.8334 34.8337 79.6564C34.4149 79.5585 34.0291 79.5406 33.6768 79.6011C33.4125 79.6469 33.1551 79.75 32.9043 79.9114C32.6535 80.0728 32.4383 80.2714 32.2611 80.507C32.0211 80.8275 31.8396 81.2502 31.7175 81.7753ZM29.3014 83.6793L30.9746 78.664L31.9887 79.0035L30.3154 84.0186L29.3014 83.6793ZM24.3569 81.6903L25.3329 82.1277L25.985 80.6682L27.1293 80.213L27.4429 83.0734L28.7016 83.6373L28.1055 79.8332L30.7637 78.7685L29.4557 78.1824L26.534 79.4392L27.4892 77.3012L26.5133 76.8636L24.3569 81.6903ZM20.5845 77.6109L21.5364 78.0426C21.4166 78.3755 21.3977 78.659 21.4809 78.8963C21.5639 79.1334 21.7458 79.3326 22.0255 79.4945C22.3214 79.6656 22.581 79.7323 22.8036 79.6932C23.0262 79.6544 23.1868 79.551 23.2839 79.3828C23.3466 79.2741 23.3676 79.1639 23.3492 79.051C23.33 78.9389 23.2576 78.8088 23.1319 78.6622C23.0466 78.5615 22.8401 78.3538 22.5124 78.0362C22.0911 77.6275 21.8327 77.2759 21.7377 76.9805C21.6036 76.566 21.6419 76.1773 21.8517 75.8139C21.9863 75.5806 22.179 75.3993 22.4274 75.2714C22.6768 75.1444 22.9553 75.0995 23.2648 75.1365C23.5741 75.1734 23.9028 75.2924 24.254 75.4959C24.8252 75.8266 25.183 76.2029 25.3242 76.6245C25.4667 77.0468 25.4223 77.473 25.1917 77.9069L24.2477 77.403C24.3448 77.1435 24.3586 76.9255 24.2895 76.7477C24.2203 76.5696 24.0568 76.4053 23.7994 76.2562C23.5333 76.1024 23.2929 76.037 23.0789 76.061C22.9409 76.0763 22.8372 76.1427 22.7682 76.2622C22.7056 76.3709 22.6978 76.4901 22.745 76.6199C22.8038 76.7859 23.0267 77.0516 23.4132 77.4174C23.8002 77.7822 24.0671 78.0846 24.2157 78.3215C24.3649 78.56 24.4438 78.8117 24.4513 79.079C24.4588 79.3464 24.3793 79.6246 24.2126 79.9134C24.0614 80.1755 23.8469 80.3798 23.5689 80.5245C23.291 80.6692 22.9872 80.7209 22.6572 80.6777C22.3266 80.6355 21.9627 80.4987 21.5658 80.2691C20.9881 79.9345 20.6213 79.5444 20.466 79.0977C20.3102 78.6521 20.3506 78.1566 20.5845 77.6109ZM15.6186 75.9821L16.4045 76.5819L18.5079 73.8173L18.1062 77.8807L18.9557 78.529L22.1556 74.3231L21.3697 73.7234L19.2252 76.5421L19.6414 72.4045L18.8185 71.7762L15.6186 75.9821ZM13.9976 74.537L14.7694 75.278L18.4229 71.4608L17.6511 70.7197L13.9976 74.537ZM15.9881 66.7903L15.7346 68.07L16.3769 68.7508L17.6594 68.5618L17.1022 67.9712L16.4249 68.0383L16.5502 67.3861L15.9881 66.7903ZM11.5954 69.5862L12.3846 70.2721C12.1748 70.5569 12.076 70.8233 12.088 71.0742C12.1001 71.3255 12.2176 71.5681 12.4396 71.8035C12.6743 72.0521 12.9042 72.1901 13.1285 72.2165C13.3529 72.2428 13.5362 72.1898 13.6773 72.0561C13.7684 71.97 13.8199 71.8706 13.8344 71.7567C13.8481 71.644 13.8156 71.4986 13.7372 71.3221C13.684 71.2014 13.5454 70.9433 13.3218 70.5449C13.0346 70.0326 12.8872 69.6221 12.8803 69.3117C12.8699 68.8761 13.0176 68.5146 13.3221 68.2263C13.5178 68.0412 13.754 67.9225 14.0285 67.871C14.3037 67.8206 14.5834 67.8572 14.8696 67.9812C15.1555 68.1049 15.4366 68.3133 15.7151 68.6087C16.1683 69.0888 16.4039 69.5519 16.4191 69.9963C16.4353 70.4417 16.2711 70.8375 15.9265 71.1875L15.1653 70.4345C15.3324 70.2136 15.4078 70.0086 15.3923 69.8183C15.3769 69.628 15.2669 69.4238 15.0626 69.2074C14.8517 68.9837 14.6397 68.8522 14.4278 68.8139C14.2911 68.7893 14.1729 68.8234 14.0728 68.9181C13.9817 69.0044 13.9403 69.1164 13.9486 69.2541C13.9575 69.4303 14.0953 69.7485 14.3615 70.2097C14.6285 70.6701 14.7981 71.0361 14.873 71.3056C14.9479 71.5769 14.9517 71.8407 14.8828 72.0991C14.8137 72.3574 14.6582 72.6012 14.4161 72.8302C14.1965 73.0382 13.9326 73.1728 13.625 73.2319C13.3172 73.2912 13.0115 73.2538 12.7075 73.1179C12.4028 72.9831 12.0929 72.7479 11.7781 72.4141C11.3198 71.9283 11.0795 71.4497 11.058 70.9773C11.0357 70.5054 11.2158 70.0421 11.5954 69.5862ZM9.22913 69.2025L9.89601 70.0392L14.0227 66.741L13.3557 65.9039L9.22913 69.2025ZM7.12663 66.2782L10.5666 61.8432L11.1869 62.8194L8.6096 66.0538L12.5975 65.0396L13.2071 65.9989L7.74479 67.2512L7.12663 66.2782ZM5.11927 55.9045C4.56101 56.1205 4.18797 56.414 3.99877 56.784C3.81064 57.1537 3.79287 57.538 3.94607 57.9353C4.09973 58.3336 4.3689 58.6043 4.75312 58.7498C5.13796 58.8939 5.61594 58.8554 6.18798 58.634C6.75313 58.4154 7.12709 58.1282 7.30848 57.7717C7.4914 57.4159 7.50304 57.0326 7.34402 56.6205C7.18531 56.2094 6.91645 55.9321 6.5385 55.7894C6.15949 55.6471 5.68656 55.685 5.11927 55.9045ZM4.69 54.8909C5.19219 54.6967 5.64321 54.6092 6.04275 54.6274C6.33689 54.6417 6.622 54.708 6.89638 54.8249C7.17076 54.9418 7.40055 55.0968 7.587 55.29C7.83518 55.5477 8.03725 55.8771 8.19244 56.2789C8.47325 57.0069 8.47141 57.6752 8.18968 58.2872C7.90626 58.8981 7.36348 59.359 6.55979 59.67C5.76301 59.9782 5.05584 60.0026 4.43937 59.7435C3.82198 59.4851 3.37357 58.9921 3.09413 58.2677C2.81118 57.5341 2.80934 56.8631 3.09046 56.2567C3.37066 55.6509 3.90364 55.1952 4.69 54.8909ZM1.34981 51.5906L2.18612 55.2171L3.05538 55.0159L2.45974 52.4328L6.69139 51.4538L6.45072 50.4103L1.34981 51.5906ZM0.942299 49.4635L6.13344 48.5005L6.32816 49.5535L1.13686 50.5165L0.942299 49.4635ZM0.621352 45.836L0.708826 46.986L6.11567 48.4596L6.02942 47.3257L2.03492 46.3378L5.8298 44.7017L5.74217 43.5479L0.621352 45.836ZM3.3584 39.7304C2.76169 39.6847 2.29888 39.7889 1.96919 40.0415C1.64058 40.2941 1.4595 40.6335 1.42717 41.058C1.39485 41.4839 1.52139 41.844 1.80573 42.1411C2.09129 42.4369 2.53925 42.6082 3.15082 42.6548C3.75488 42.7009 4.21585 42.6028 4.53267 42.3591C4.85056 42.1167 5.02566 41.7757 5.05921 41.3351C5.09261 40.8959 4.96882 40.5296 4.68908 40.2379C4.40812 39.9462 3.96491 39.7765 3.3584 39.7304ZM3.40635 38.6302C3.943 38.6713 4.3879 38.7867 4.74071 38.9752C5.00008 39.115 5.22896 39.2977 5.42643 39.5214C5.62391 39.7451 5.76469 39.9842 5.85003 40.2388C5.96355 40.5783 6.00445 40.963 5.97182 41.3924C5.91253 42.1705 5.62406 42.7732 5.10686 43.204C4.58859 43.6336 3.90057 43.8157 3.04158 43.7501C2.18995 43.685 1.54085 43.4022 1.09581 42.903C0.649385 42.4035 0.456358 41.7653 0.515186 40.9909C0.574934 40.2067 0.861413 39.6001 1.37585 39.1741C1.88892 38.7479 2.56575 38.5662 3.40635 38.6302ZM5.73176 35.5488L4.25262 35.2744L4.14676 35.8468C4.07047 36.2595 4.04749 36.5394 4.07613 36.6888C4.10478 36.838 4.16913 36.9625 4.27177 37.063C4.37319 37.1632 4.50004 37.228 4.65461 37.2567C4.84443 37.2919 5.01065 37.2652 5.1542 37.1779C5.29805 37.0895 5.401 36.9647 5.46412 36.7998C5.51008 36.6794 5.5686 36.4311 5.63831 36.0534L5.73176 35.5488ZM1.61254 33.6956L6.80384 34.6587L6.49239 36.3421C6.37442 36.9798 6.27224 37.3904 6.18446 37.5744C6.05087 37.8575 5.83562 38.0755 5.5375 38.2279C5.23922 38.3804 4.88365 38.4182 4.47032 38.3416C4.15121 38.2823 3.8949 38.1748 3.6988 38.0194C3.50271 37.8629 3.35932 37.6849 3.26786 37.4839C3.17747 37.283 3.12875 37.0863 3.12308 36.895C3.11987 36.6351 3.16138 36.2685 3.24917 35.7942L3.37541 35.1117L1.41783 34.7485L1.61254 33.6956Z" fill="#05633B"/>
<path d="M82.476 35.617L80.6884 36.6963L82.7398 37.0414L82.476 35.617ZM84.1788 33.3103L84.3886 34.4444L83.2901 35.1126L83.6761 37.198L84.9379 37.4106L85.1439 38.5241L79.5793 37.4693L79.3734 36.3571L84.1788 33.3103ZM85.4555 43.4349L80.1913 43.8366L80.1101 42.7689L82.442 42.5909L79.9463 40.6174L79.8376 39.1864L82.0389 41.0194L85.094 38.6816L85.1986 40.0587L82.8374 41.6979L83.7826 42.4886L85.3743 42.3672L85.4555 43.4349ZM85.1251 48.3977L85.4296 44.3917L84.54 44.324L84.3167 47.2622L82.8902 47.1533L83.0908 44.5171L82.2011 44.449L82.0006 47.0853L80.8317 46.9961L81.0472 44.161L80.1576 44.0933L79.8609 47.9962L85.1251 48.3977ZM84.5823 51.8167L80.2685 51.0158L79.9834 52.5551L79.1064 52.3924L79.8696 48.2678L80.747 48.4307L80.4632 49.963L84.7772 50.7639L84.5823 51.8167ZM80.4156 56.8503C79.8411 56.6498 79.4561 56.3722 79.2591 56.0182C79.0633 55.6643 79.0373 55.2787 79.1819 54.8624C79.3268 54.4451 79.5834 54.1605 79.9526 54.0079C80.3212 53.8536 80.792 53.8767 81.3642 54.0764C81.9433 54.2784 82.3324 54.5588 82.533 54.918C82.7318 55.2781 82.7621 55.6586 82.622 56.062C82.4821 56.4643 82.2203 56.7457 81.838 56.9058C81.4547 57.0653 80.9807 57.0474 80.4156 56.8503ZM80.0879 57.9011C80.8841 58.1787 81.585 58.1769 82.1899 57.8965C82.7961 57.6165 83.228 57.1037 83.4863 56.3609C83.7412 55.6273 83.7176 54.9611 83.414 54.3638C83.1113 53.7669 82.5564 53.3271 81.7498 53.0458C80.9362 52.7619 80.2246 52.7615 79.6138 53.0438C79.0037 53.3275 78.5706 53.836 78.3143 54.573C78.1729 54.9799 78.1141 55.3622 78.1372 55.7194C78.1545 55.9875 78.2294 56.2547 78.3632 56.5216C78.4968 56.7884 78.6713 57.0239 78.8862 57.2254C79.1791 57.4982 79.5797 57.7239 80.0879 57.9011ZM81.78 60.5257L76.961 58.3656L77.3979 57.3882L82.2167 59.5483L81.78 60.5257ZM79.8267 64.6148L75.1532 62.2515L75.6352 61.2957L79.512 63.256L80.705 60.8894L81.5016 61.292L79.8267 64.6148ZM75.5331 66.9054L76.0376 66.206C76.322 65.812 76.5279 65.5706 76.6535 65.4823C76.7793 65.3942 76.9106 65.351 77.0449 65.3539C77.1799 65.3561 77.3107 65.4037 77.4403 65.4975C77.5926 65.6078 77.6837 65.7359 77.7171 65.8829C77.7493 66.0294 77.7305 66.1752 77.6617 66.3212C77.618 66.4173 77.4838 66.6224 77.2592 66.9336L76.6806 67.7357L75.5331 66.9054ZM73.8357 65.677L74.194 65.1802C74.4871 64.7741 74.6697 64.5313 74.7416 64.4528C74.8623 64.3212 74.9905 64.2486 75.1256 64.2356C75.2608 64.2226 75.394 64.2627 75.5267 64.3586C75.664 64.4582 75.7444 64.5801 75.7678 64.7261C75.7913 64.8723 75.7579 65.0258 75.6683 65.1856C75.6194 65.2746 75.4732 65.4877 75.2306 65.824L74.8218 66.3906L73.8357 65.677ZM72.4983 66.0303L76.7777 69.1271L77.8307 67.6674C78.2247 67.1128 78.4658 66.7576 78.5545 66.603C78.6949 66.3537 78.7669 66.1112 78.7704 65.8753C78.7733 65.6375 78.7152 65.4071 78.5964 65.183C78.4775 64.9588 78.3208 64.777 78.1256 64.6358C77.8774 64.4562 77.6119 64.3704 77.3279 64.3773C77.0431 64.3854 76.7696 64.4914 76.505 64.6961C76.5547 64.4511 76.5358 64.2143 76.4462 63.9854C76.3575 63.7575 76.2121 63.5701 76.0128 63.4258C75.8285 63.2925 75.6297 63.2153 75.4179 63.1958C75.2061 63.1762 75.0084 63.2001 74.8237 63.2669C74.6401 63.3345 74.4741 63.4406 74.3243 63.5874C74.1761 63.7337 73.9802 63.9761 73.7346 64.3163L72.4983 66.0303ZM75.4449 70.8651L76.0928 70.0133L71.8933 66.8089L71.2453 67.6607L75.4449 70.8651ZM70.8091 72.4264L71.8311 73.4078L72.5148 72.6932C72.7802 72.416 72.9415 72.2315 72.9979 72.1425C73.0863 72.0074 73.1249 71.8655 73.1131 71.716C73.1003 71.5657 73.0279 71.4263 72.8921 71.2959C72.7766 71.1852 72.6538 71.1199 72.5203 71.0992C72.3877 71.0776 72.2519 71.1023 72.1151 71.1721C71.9783 71.2421 71.7412 71.4526 71.4052 71.8036L70.8091 72.4264ZM69.2973 70.9751L70.1756 71.8183L70.6587 71.3137C70.9451 71.0142 71.1195 70.8233 71.1803 70.7418C71.2911 70.596 71.3453 70.4484 71.3422 70.3006C71.3392 70.1527 71.2764 70.0208 71.154 69.9033C71.0358 69.79 70.9094 69.7318 70.7737 69.7259C70.6381 69.72 70.501 69.7743 70.3636 69.8877C70.2815 69.9557 70.067 70.171 69.7208 70.5325L69.2973 70.9751ZM67.9241 71.14L69.3851 69.6135C69.675 69.3105 69.9026 69.0975 70.0696 68.973C70.238 68.8484 70.4171 68.7663 70.6083 68.7248C70.8005 68.6842 70.9995 68.6879 71.2065 68.7366C71.4136 68.7853 71.6002 68.8893 71.7641 69.0468C71.9416 69.2172 72.06 69.4228 72.1162 69.661C72.1733 69.9 72.1592 70.1371 72.0764 70.3729C72.3668 70.2067 72.6521 70.1397 72.9354 70.1711C73.2175 70.2035 73.4688 70.3252 73.6896 70.5373C73.8634 70.7043 73.9938 70.9062 74.0805 71.1444C74.1674 71.3829 74.1933 71.6192 74.1573 71.854C74.1214 72.0873 74.0166 72.3178 73.8434 72.5449C73.7341 72.6857 73.4463 73.0044 72.9796 73.4991L71.7355 74.7991L67.9241 71.14ZM66.8086 78.6087L67.6806 77.989L64.6251 73.6769L63.7531 74.2965L66.8086 78.6087ZM62.252 75.2552L63.1758 74.7159L64.8604 77.6105C65.0805 77.989 65.2173 78.2996 65.2693 78.5428C65.3347 78.8607 65.2978 79.1688 65.1571 79.4674C65.0171 79.7643 64.7551 80.0255 64.3708 80.2499C63.9207 80.5128 63.5015 80.5893 63.1127 80.4785C62.7228 80.3685 62.3855 80.0698 62.0999 79.5838L62.9134 78.9723C63.0755 79.2267 63.2198 79.389 63.3482 79.4579C63.5421 79.5639 63.7394 79.5584 63.9412 79.4407C64.144 79.3223 64.2543 79.1797 64.2695 79.0125C64.2853 78.8466 64.186 78.5784 63.9706 78.2082L62.252 75.2552ZM57.7089 80.503C57.9556 81.0492 58.269 81.4057 58.6486 81.574C59.0277 81.7413 59.4119 81.7376 59.7993 81.5619C60.1878 81.3861 60.4424 81.1016 60.5659 80.7094C60.6879 80.3163 60.6228 79.8406 60.3698 79.2811C60.1201 78.7281 59.8128 78.3702 59.4473 78.209C59.0823 78.046 58.6997 78.056 58.2977 78.2381C57.8969 78.4198 57.6355 78.7043 57.5144 79.0902C57.3938 79.4772 57.4581 79.948 57.7089 80.503ZM56.7226 80.9891C56.5008 80.498 56.3882 80.0518 56.3841 79.6512C56.3816 79.3563 56.4318 79.0674 56.5328 78.7866C56.6339 78.5056 56.7758 78.2671 56.9578 78.0698C57.2006 77.8072 57.5177 77.5864 57.9096 77.4089C58.6194 77.0871 59.2858 77.0513 59.9115 77.2987C60.5365 77.5478 61.0264 78.0647 61.3816 78.8509C61.7336 79.6304 61.7975 80.3362 61.574 80.9671C61.3509 81.599 60.8849 82.0751 60.1783 82.3955C59.4629 82.7195 58.7942 82.7592 58.1739 82.5119C57.5543 82.2659 57.0701 81.7585 56.7226 80.9891ZM52.0191 77.9326L52.8073 77.7116L53.3253 78.1263L53.5814 77.4946L54.3623 77.2756L53.9327 78.5004L53.0322 78.753L52.0191 77.9326ZM52.4456 83.1279C52.6716 83.6767 52.9973 84.0519 53.4246 84.2518C53.852 84.4526 54.387 84.4624 55.0296 84.2821C55.4711 84.1585 55.823 83.9932 56.0841 83.7859C56.3454 83.5796 56.5209 83.3259 56.6119 83.0256C56.7027 82.7253 56.7065 82.4289 56.625 82.1373C56.5353 81.8161 56.3923 81.5648 56.1961 81.3833C55.9998 81.2019 55.7648 81.0824 55.4903 81.0227C55.2173 80.9638 54.8147 80.9436 54.2838 80.9661C53.7524 80.9873 53.4069 80.9614 53.2472 80.8874C53.1215 80.8306 53.0419 80.7417 53.008 80.6208C52.9709 80.4882 52.9958 80.3673 53.0814 80.2577C53.2138 80.0875 53.4285 79.9608 53.7244 79.878C54.0107 79.7977 54.2423 79.7954 54.4177 79.87C54.593 79.9451 54.7392 80.1071 54.8567 80.3581L55.8762 80.0338C55.7274 79.5654 55.454 79.2358 55.0529 79.0427C54.6531 78.8494 54.1343 78.8426 53.4989 79.0208C53.1084 79.1304 52.7934 79.2826 52.5509 79.4786C52.3082 79.6744 52.1458 79.9054 52.0623 80.1729C51.9799 80.4401 51.9748 80.7048 52.0475 80.9643C52.1604 81.3686 52.4111 81.6676 52.8009 81.8611C53.0782 81.9995 53.5099 82.06 54.0962 82.0437C54.5521 82.031 54.8449 82.0281 54.9763 82.0373C55.1687 82.0499 55.3121 82.0888 55.4057 82.1534C55.4993 82.2191 55.5632 82.3111 55.5972 82.4319C55.6495 82.6193 55.6113 82.8064 55.4834 82.9931C55.3558 83.1797 55.1267 83.3193 54.7977 83.4116C54.4865 83.4988 54.2172 83.4899 53.9899 83.3838C53.7622 83.2776 53.573 83.0662 53.4189 82.7477L52.4456 83.1279ZM48.259 85.7207L47.2964 80.5214L51.139 79.8078L51.3018 80.6864L48.5105 81.2048L48.7243 82.3593L51.3198 81.8774L51.4823 82.756L48.8868 83.2381L49.1475 84.6467L52.0404 84.1095L52.2031 84.9882L48.259 85.7207ZM46.0963 85.7945L45.6954 80.5219L46.7615 80.4407L47.1624 85.7132L46.0963 85.7945ZM42.4799 85.999L40.4224 80.7748L41.5771 80.7376L43.0427 84.6066L44.2032 80.6531L45.3381 80.6165L43.6307 85.9621L42.4799 85.999ZM32.7954 81.9903C32.9336 81.3968 33.1683 80.9841 33.4992 80.7503C33.8295 80.5179 34.2097 80.4509 34.6382 80.5511C35.068 80.6513 35.3776 80.8765 35.5685 81.2283C35.7606 81.5789 35.7874 82.0502 35.6498 82.6412C35.5107 83.2395 35.2736 83.6566 34.938 83.8944C34.6018 84.1306 34.2271 84.2011 33.8117 84.1041C33.3975 84.0074 33.0903 83.7766 32.891 83.4129C32.692 83.048 32.6597 82.5741 32.7954 81.9903ZM31.7175 81.7753C31.5262 82.5977 31.6023 83.2954 31.9449 83.8682C32.2869 84.4422 32.8418 84.8182 33.6066 84.9966C34.3619 85.173 35.0209 85.0789 35.5816 84.7131C36.1422 84.3486 36.5201 83.7493 36.7141 82.9161C36.9094 82.0758 36.8345 81.3669 36.4896 80.7884C36.1433 80.211 35.5925 79.8334 34.8337 79.6564C34.4149 79.5585 34.0291 79.5406 33.6768 79.6011C33.4125 79.6469 33.1551 79.75 32.9043 79.9114C32.6535 80.0728 32.4383 80.2714 32.2611 80.507C32.0211 80.8275 31.8396 81.2502 31.7175 81.7753ZM29.3014 83.6793L30.9746 78.664L31.9887 79.0035L30.3154 84.0186L29.3014 83.6793ZM24.3569 81.6903L25.3329 82.1277L25.985 80.6682L27.1293 80.213L27.4429 83.0734L28.7016 83.6373L28.1055 79.8332L30.7637 78.7685L29.4557 78.1824L26.534 79.4392L27.4892 77.3012L26.5133 76.8636L24.3569 81.6903ZM20.5845 77.6109L21.5364 78.0426C21.4166 78.3755 21.3977 78.659 21.4809 78.8963C21.5639 79.1334 21.7458 79.3326 22.0255 79.4945C22.3214 79.6656 22.581 79.7323 22.8036 79.6932C23.0262 79.6544 23.1868 79.551 23.2839 79.3828C23.3466 79.2741 23.3676 79.1639 23.3492 79.051C23.33 78.9389 23.2576 78.8088 23.1319 78.6622C23.0466 78.5615 22.8401 78.3538 22.5124 78.0362C22.0911 77.6275 21.8327 77.2759 21.7377 76.9805C21.6036 76.566 21.6419 76.1773 21.8516 75.8139C21.9863 75.5806 22.179 75.3993 22.4274 75.2714C22.6768 75.1444 22.9553 75.0995 23.2648 75.1365C23.5741 75.1734 23.9028 75.2924 24.254 75.4959C24.8252 75.8266 25.183 76.2029 25.3242 76.6245C25.4667 77.0468 25.4223 77.473 25.1917 77.9069L24.2477 77.403C24.3448 77.1435 24.3586 76.9255 24.2895 76.7477C24.2203 76.5696 24.0568 76.4053 23.7994 76.2562C23.5333 76.1024 23.2929 76.037 23.0789 76.061C22.9409 76.0763 22.8372 76.1427 22.7682 76.2622C22.7056 76.3709 22.6978 76.4901 22.745 76.6199C22.8038 76.7859 23.0267 77.0516 23.4132 77.4174C23.8002 77.7822 24.0671 78.0846 24.2157 78.3215C24.3649 78.56 24.4438 78.8117 24.4513 79.079C24.4588 79.3464 24.3793 79.6246 24.2126 79.9134C24.0614 80.1755 23.8469 80.3798 23.5689 80.5245C23.291 80.6692 22.9872 80.7209 22.6572 80.6777C22.3266 80.6355 21.9627 80.4987 21.5658 80.2691C20.9881 79.9345 20.6213 79.5444 20.466 79.0977C20.3102 78.6521 20.3506 78.1566 20.5845 77.6109ZM15.6186 75.9821L16.4045 76.5819L18.5079 73.8173L18.1062 77.8807L18.9557 78.529L22.1556 74.3231L21.3697 73.7234L19.2252 76.5421L19.6414 72.4045L18.8185 71.7762L15.6186 75.9821ZM13.9976 74.537L14.7694 75.278L18.4229 71.4608L17.6511 70.7197L13.9976 74.537ZM15.9881 66.7903L15.7346 68.07L16.3769 68.7508L17.6594 68.5618L17.1022 67.9712L16.4249 68.0383L16.5502 67.3861L15.9881 66.7903ZM11.5954 69.5862L12.3846 70.2721C12.1748 70.5569 12.076 70.8233 12.088 71.0742C12.1001 71.3255 12.2176 71.5681 12.4396 71.8035C12.6743 72.0521 12.9042 72.1901 13.1285 72.2165C13.3529 72.2428 13.5362 72.1898 13.6773 72.0561C13.7684 71.97 13.8199 71.8706 13.8344 71.7567C13.8481 71.644 13.8156 71.4986 13.7372 71.3221C13.684 71.2014 13.5454 70.9433 13.3218 70.5449C13.0346 70.0326 12.8872 69.6221 12.8803 69.3117C12.8699 68.8761 13.0176 68.5146 13.3221 68.2263C13.5178 68.0412 13.754 67.9225 14.0285 67.871C14.3037 67.8206 14.5834 67.8572 14.8696 67.9812C15.1555 68.1049 15.4366 68.3133 15.7151 68.6087C16.1683 69.0888 16.4039 69.5519 16.4191 69.9963C16.4353 70.4417 16.2711 70.8375 15.9265 71.1875L15.1653 70.4345C15.3324 70.2136 15.4078 70.0086 15.3923 69.8183C15.3769 69.628 15.2669 69.4238 15.0626 69.2074C14.8517 68.9837 14.6397 68.8522 14.4278 68.8139C14.2911 68.7893 14.1729 68.8234 14.0728 68.9181C13.9817 69.0044 13.9403 69.1164 13.9486 69.2541C13.9575 69.4303 14.0953 69.7485 14.3614 70.2097C14.6285 70.6701 14.7981 71.0361 14.873 71.3056C14.9479 71.5769 14.9517 71.8407 14.8828 72.0991C14.8137 72.3574 14.6582 72.6012 14.4161 72.8302C14.1965 73.0382 13.9326 73.1728 13.625 73.2319C13.3172 73.2912 13.0115 73.2538 12.7075 73.1179C12.4028 72.9831 12.0929 72.7479 11.7781 72.4141C11.3198 71.9283 11.0795 71.4497 11.058 70.9773C11.0357 70.5054 11.2158 70.0421 11.5954 69.5862ZM9.22913 69.2025L9.89601 70.0392L14.0227 66.741L13.3557 65.9039L9.22913 69.2025ZM7.12663 66.2782L10.5666 61.8432L11.1869 62.8194L8.6096 66.0538L12.5975 65.0396L13.2071 65.9989L7.74479 67.2512L7.12663 66.2782ZM5.11927 55.9045C4.56101 56.1205 4.18797 56.414 3.99877 56.784C3.81064 57.1537 3.79287 57.538 3.94607 57.9353C4.09973 58.3336 4.3689 58.6043 4.75312 58.7498C5.13796 58.8939 5.61594 58.8554 6.18798 58.634C6.75313 58.4154 7.12709 58.1282 7.30848 57.7717C7.4914 57.4159 7.50304 57.0326 7.34402 56.6205C7.18531 56.2094 6.91645 55.9321 6.5385 55.7894C6.15949 55.6471 5.68656 55.685 5.11927 55.9045ZM4.69 54.8909C5.19219 54.6967 5.64321 54.6092 6.04275 54.6274C6.33689 54.6417 6.622 54.708 6.89638 54.8249C7.17076 54.9418 7.40055 55.0968 7.587 55.29C7.83518 55.5477 8.03725 55.8771 8.19244 56.2789C8.47325 57.0069 8.47141 57.6752 8.18968 58.2872C7.90626 58.8981 7.36348 59.359 6.55979 59.67C5.76301 59.9782 5.05584 60.0026 4.43937 59.7435C3.82198 59.4851 3.37357 58.9921 3.09413 58.2677C2.81118 57.5341 2.80934 56.8631 3.09046 56.2567C3.37066 55.6509 3.90364 55.1952 4.69 54.8909ZM1.34981 51.5906L2.18612 55.2171L3.05538 55.0159L2.45974 52.4328L6.69139 51.4538L6.45072 50.4103L1.34981 51.5906ZM0.942299 49.4635L6.13344 48.5005L6.32816 49.5535L1.13686 50.5165L0.942299 49.4635ZM0.621352 45.836L0.708826 46.986L6.11567 48.4596L6.02942 47.3257L2.03492 46.3378L5.8298 44.7017L5.74217 43.5479L0.621352 45.836ZM3.3584 39.7304C2.76169 39.6847 2.29888 39.7889 1.96919 40.0415C1.64058 40.2941 1.4595 40.6335 1.42717 41.058C1.39485 41.4839 1.52139 41.844 1.80573 42.1411C2.09129 42.4369 2.53925 42.6082 3.15082 42.6548C3.75488 42.7009 4.21585 42.6028 4.53267 42.3591C4.85056 42.1167 5.02566 41.7757 5.05921 41.3351C5.09261 40.8959 4.96883 40.5296 4.68908 40.2379C4.40812 39.9462 3.96491 39.7765 3.3584 39.7304ZM3.40635 38.6302C3.943 38.6713 4.3879 38.7867 4.74071 38.9752C5.00008 39.115 5.22896 39.2977 5.42643 39.5214C5.62391 39.7451 5.76469 39.9842 5.85003 40.2388C5.96355 40.5783 6.00445 40.963 5.97182 41.3924C5.91253 42.1705 5.62406 42.7732 5.10686 43.204C4.58859 43.6336 3.90057 43.8157 3.04158 43.7501C2.18995 43.685 1.54085 43.4022 1.09581 42.903C0.649385 42.4035 0.456358 41.7653 0.515186 40.9909C0.574934 40.2067 0.861413 39.6001 1.37585 39.1741C1.88892 38.7479 2.56575 38.5662 3.40635 38.6302ZM5.73176 35.5488L4.25262 35.2744L4.14676 35.8468C4.07047 36.2595 4.04749 36.5394 4.07613 36.6888C4.10478 36.838 4.16913 36.9625 4.27177 37.063C4.37319 37.1632 4.50004 37.228 4.65461 37.2567C4.84443 37.2919 5.01065 37.2652 5.1542 37.1779C5.29805 37.0895 5.401 36.9647 5.46412 36.7998C5.51008 36.6794 5.5686 36.4311 5.63831 36.0534L5.73176 35.5488ZM1.61254 33.6956L6.80384 34.6587L6.49239 36.3421C6.37442 36.9798 6.27224 37.3904 6.18446 37.5744C6.05087 37.8575 5.83562 38.0755 5.5375 38.2279C5.23922 38.3804 4.88365 38.4182 4.47032 38.3416C4.15121 38.2823 3.8949 38.1748 3.6988 38.0194C3.50271 37.8629 3.35932 37.6849 3.26786 37.4839C3.17747 37.283 3.12875 37.0863 3.12308 36.895C3.11987 36.6351 3.16138 36.2685 3.24917 35.7942L3.37541 35.1117L1.41783 34.7485L1.61254 33.6956Z" stroke="#05633B" stroke-width="0.0330909" stroke-miterlimit="22.926"/>
<path fill-rule="evenodd" clip-rule="evenodd" d="M5.84772 27.3065C6.6681 27.3065 7.33314 27.9744 7.33314 28.7982C7.33314 29.6221 6.6681 30.29 5.84772 30.29C5.02749 30.29 4.3623 29.6221 4.3623 28.7982C4.3623 27.9744 5.02749 27.3065 5.84772 27.3065Z" fill="#05633B"/>
<path d="M5.84772 27.3065C6.6681 27.3065 7.33314 27.9744 7.33314 28.7982C7.33314 29.6221 6.6681 30.29 5.84772 30.29C5.02749 30.29 4.3623 29.6221 4.3623 28.7982C4.3623 27.9744 5.02749 27.3065 5.84772 27.3065Z" stroke="#05633B" stroke-width="0.0868637" stroke-miterlimit="22.926"/>
<path fill-rule="evenodd" clip-rule="evenodd" d="M65.4376 58.1031L66.2837 61.4338C64.5788 61.4602 63.668 61.3267 62.4631 61.1729C61.9619 61.109 59.4258 60.6499 59.1995 60.4045L58.8179 60.3023C58.4974 60.1592 58.1618 60.0395 57.8523 59.896C57.4261 59.6981 57.0267 59.4742 56.589 59.2687C56.4795 59.2317 56.366 59.1531 56.2302 59.0805C55.9372 58.9229 55.5948 58.7308 55.3593 58.6143C55.0135 58.444 54.6638 58.2677 54.3201 58.0935C53.853 57.8563 52.4513 57.2714 51.9754 57.2792C51.8078 57.2507 51.6574 57.2342 51.5286 57.1482C50.9763 57.1229 50.5369 57.0297 49.9459 57.0453C48.8716 57.0729 48.0817 57.2529 47.2201 57.6043C46.9811 57.702 46.7468 57.8293 46.486 57.9507C46.365 58.0074 46.177 58.0872 45.9984 58.1875C45.6396 58.3896 45.2552 58.6373 45.1002 58.6632C44.8048 58.7132 44.5568 58.6808 44.6887 58.5445C45.1809 58.1292 45.5898 57.7552 46.0661 57.4238C46.5592 57.0802 47.0715 56.7999 47.5935 56.5586C48.2351 56.2623 48.7633 56.0555 49.3125 55.9643C50.0004 55.8502 50.7347 55.9596 51.6189 56.1143C51.7602 56.139 52.4991 56.3145 53.3924 56.6139C54.3408 56.9311 55.4511 57.4362 56.4864 57.8195C56.8631 57.9588 58.313 58.512 59.7763 58.8916C60.7917 59.1551 61.8157 59.3172 62.4859 59.2734C62.8499 59.25 63.1426 59.2012 63.2392 59.0007C61.9439 58.761 60.8676 58.5701 59.5965 58.1253C58.9428 57.896 58.3217 57.6115 57.6691 57.3552C57.1033 57.1329 56.5545 56.9138 55.9784 56.6977C55.9316 56.6808 54.798 56.2396 53.7078 55.8638C52.621 55.4891 51.468 55.1209 50.3105 55.043C49.3573 54.978 48.3979 55.1285 47.4833 55.4572C46.8882 55.6703 46.0324 56.1987 45.3873 56.7783C44.816 57.2906 44.3567 57.7716 44.1457 57.9688L44.0374 57.7423C44.1533 57.6147 44.2441 57.4275 44.3665 57.2423C44.5519 56.9622 44.7677 56.6892 45.1788 56.2289C45.3335 56.0559 45.5273 55.8693 45.7769 55.6515C46.0491 55.4486 46.2744 55.2248 46.535 55.0379C47.8861 54.0689 49.5273 53.8551 51.2176 54.0106C52.606 54.1383 54.0485 54.5054 55.2277 55.0011C56.0101 55.3295 56.6714 55.7763 57.4368 56.1465C58.6814 56.747 60.058 57.2611 61.5923 57.5842C62.6577 57.8082 63.8804 58.1212 65.4376 58.1031ZM55.7009 52.3886C56.6114 52.9026 57.8603 53.6293 58.9749 54.2692C60.572 55.1856 61.32 55.5243 63.1991 55.6607C63.7337 55.6996 64.2617 55.7126 64.847 55.7783L65.2225 57.2553C64.4192 57.2256 63.5301 57.2374 62.6217 57.1266C61.8485 57.0321 61.0909 56.8512 60.3776 56.6408C59.0969 56.2623 57.4117 55.4848 55.9226 54.7455C55.3817 54.4769 54.7787 54.2698 54.3543 54.0086C51.8924 52.9861 50.9522 52.7297 49.3838 52.9328C47.3637 53.1928 45.4247 54.538 44.0623 56.0211C43.879 56.2197 43.7148 56.4257 43.5208 56.6744C43.5143 56.576 43.5714 56.4472 43.6342 56.2971C43.6952 56.1526 43.7271 55.9865 44.1393 55.1746L44.4688 54.573C44.6299 54.3301 44.7406 54.1219 44.8728 53.9314C45.0977 53.6084 45.3435 53.3245 45.6892 52.9564C46.3088 52.2961 47.2252 51.6026 48.1482 51.219C48.4129 51.1088 48.8342 50.9683 49.4904 50.8778C49.6157 50.8606 49.8319 50.8079 50.1168 50.7911C52.1181 50.6753 53.9989 51.4269 55.7009 52.3886ZM42.9502 55.5473L42.9079 12.2355C43.0481 12.3818 42.9949 12.3068 43.0761 12.482C43.9527 14.3783 45.6266 16.3973 47.1612 17.7577C49.0628 19.4428 51.4803 20.9541 52.923 22.5598C53.9433 23.6953 54.3367 24.9195 54.3306 26.1123C54.3217 27.647 53.7384 28.7832 52.9227 29.6769C51.9895 30.6994 50.7118 31.375 48.9718 31.4263C47.9031 31.4571 46.7595 31.2348 45.9028 31.1121C45.4947 31.0485 44.9981 30.8077 44.6971 30.7754C44.704 33.0453 45.021 37.0102 47.538 37.8072C49.6033 38.4632 51.4662 37.5025 53.2419 36.495C53.2514 36.4399 53.2546 36.2714 53.2193 36.0339C53.0832 35.119 52.9211 34.257 52.8559 33.3203C52.7391 31.655 53.3407 30.258 54.3977 29.2368C54.9957 28.6588 55.6786 28.1569 56.6126 27.9018C57.5174 27.6545 58.3969 27.6334 59.2196 27.7223C63.2961 28.1578 64.842 30.7754 67.9645 33.8611C69.009 34.8926 70.3737 35.9904 71.5916 36.7804C72.1203 37.1235 72.6302 37.4188 73.1659 37.7441C72.5968 38.3405 71.9011 38.7665 71.3042 39.2195C69.7418 40.4042 68.4062 41.5843 66.7613 43.6267C65.447 45.258 64.1161 47.3467 62.6073 48.782C61.9236 49.4316 61.21 49.8949 60.8547 50.085C59.9847 50.5516 59.0983 50.792 58.1398 50.8242C57.537 50.8446 56.9038 50.8131 56.2273 50.6111C55.5427 50.4063 54.7367 49.9499 54.2052 49.4762C52.0229 47.5356 51.81 44.4525 52.5142 41.7836C52.5801 41.5319 52.7171 41.2578 52.7253 40.9922C52.727 40.9355 52.7201 40.875 52.6967 40.8206C52.5014 40.8473 52.3754 40.9704 52.2264 41.0383C51.5803 41.3311 51.1868 41.5351 50.3361 42.0975C49.1042 42.9718 48.4813 43.6387 47.817 44.6631C47.3972 45.3112 46.994 46.1426 46.7085 46.8582C45.9791 48.6854 45.4463 51.0981 45.3422 52.1325L42.9502 55.5473ZM48.638 58.3315C49.6842 58.256 50.8304 58.3443 51.8651 58.4605C52.7431 58.5589 53.7171 58.8245 54.5676 59.0744C54.8321 59.1516 55.0694 59.2679 55.3441 59.3414C55.5221 59.3842 55.596 59.3958 55.7316 59.5024C56.037 59.5999 56.5328 59.8055 57.0324 60.0262C57.4564 60.2133 57.9073 60.396 58.2122 60.5158C58.9138 60.7907 59.647 61.0499 60.379 61.292C61.8839 61.7898 63.3328 62.0817 65.3485 61.964C65.6621 61.9456 66.0772 61.9221 66.3951 61.8724L66.7418 63.2368C66.4737 63.2465 66.252 63.1873 65.9606 63.157C65.5833 63.1179 65.1616 63.0937 64.7207 63.0288C63.9492 62.9146 63.111 62.8082 62.2779 62.6249C60.5734 62.2485 58.8723 61.722 57.6878 61.3705C56.1887 60.9244 54.7569 60.3322 53.2638 59.9564C52.0995 59.6627 50.4721 59.4085 49.2638 59.3575C46.8929 59.2564 46.5778 59.6687 45.5137 59.6929L45.3795 59.3823C45.9353 59.0546 46.2869 58.831 46.6412 58.7035C47.1838 58.5091 47.6306 58.4043 48.638 58.3315ZM73.713 49.376C74.3592 45.7611 74.3633 42.3327 73.8574 38.5272C73.701 37.3539 73.379 36.1267 73.1205 34.9744C72.9851 34.3723 72.698 33.6759 72.5422 33.0167L72.4339 32.7705C72.3837 32.432 72.1866 31.9712 71.9651 31.4543C70.5071 28.0504 68.9517 25.4016 66.9868 22.9475C65.1216 20.6174 63.2464 18.9525 60.8234 17.2448C59.1677 15.8855 55.8267 14.4483 53.8199 13.685C51.9823 12.9864 50.1544 12.7382 48.2378 12.3815C47.2073 12.1894 43.8507 12.035 42.9808 12.1398C41.0525 14.8528 41.2227 14.7474 41.0471 14.97C40.8967 15.1598 40.5189 15.6206 38.0581 17.9684C36.9737 19.0005 35.6977 19.8046 34.4964 20.7209C33.8041 21.2495 33.1016 21.7674 32.5328 22.409C31.9612 23.0546 31.6011 23.7872 31.4313 24.6341C30.9838 26.8679 31.6819 29.113 33.5168 30.4916C34.6177 31.3186 35.8788 31.6587 37.2354 31.5876C38.8126 31.5052 39.5323 31.3155 40.9443 31.0529L39.0615 37.2203C38.2194 37.9771 37.0297 38.1272 35.9329 37.9654C34.5301 37.7586 34.0159 37.3189 33.0177 36.9545C32.899 36.8875 32.7945 36.8217 32.6817 36.7633C32.5924 36.7169 32.4942 36.676 32.3963 36.6302C32.3739 36.5189 32.4308 36.4034 32.5124 36.2861C33.0721 34.1148 33.4624 32.2239 32.2243 30.2246C32.0467 29.9383 31.822 29.6709 31.5981 29.4191C30.6408 28.3404 29.5407 27.7233 28.11 27.551C26.0528 27.3052 23.923 27.8854 22.2762 29.1469C22.1714 29.2282 21.9298 29.4186 21.6958 29.6276C20.6795 30.5344 19.8011 31.5556 18.8655 32.5511C17.0899 34.4409 15.0873 36.1594 12.8265 37.4294C12.5986 37.5576 12.4154 37.6718 12.3164 37.7461C12.2663 37.7842 12.2488 37.8263 12.2456 37.8317C12.4108 37.9876 12.6589 38.1053 12.8941 38.2752C16.3356 40.7641 18.2018 43.0619 20.7238 46.3139C21.6373 47.4909 22.4203 48.5705 23.6018 49.5021C25.3452 50.8775 27.7394 51.5476 29.8734 50.7229C30.2195 50.5889 30.5644 50.449 30.8708 50.2408C32.5046 49.1283 33.3437 47.7653 33.7322 46.1847C33.8436 45.7308 33.8405 45.2485 33.8278 44.7462C33.8132 44.1349 33.7746 43.4918 33.6709 42.8356C33.6113 42.4592 33.3465 41.6106 33.2047 41.2261C33.6113 41.2817 34.0901 41.4408 34.5887 41.7472C35.1392 42.0846 35.7904 42.5419 36.3193 43.0676C37.678 44.4188 38.3073 45.742 39.0554 47.4422C39.1127 47.6139 39.2264 47.9509 39.3689 48.3765C39.469 48.6754 39.598 49.0196 39.6739 49.3803C39.8216 50.085 39.9804 50.8442 40.1194 51.4364C40.2675 52.0674 40.3904 52.5103 40.3455 52.5167C40.3242 52.5198 39.8905 52.0262 39.498 51.698C39.1171 51.38 38.0435 50.9817 37.5619 50.8639C37.0228 50.684 36.4061 50.5869 35.7688 50.5869C35.0493 50.5872 34.3023 50.7096 33.6113 50.8809C33.0741 51.0141 32.0757 51.3308 31.1966 51.7555C30.0988 52.2866 28.9473 52.9664 27.8569 53.6426C27.148 54.082 26.4095 54.4846 25.7296 54.8873C24.0352 55.8987 23.015 55.6525 21.087 55.6412L20.7117 57.1588L23.3397 56.9797C24.1628 56.9128 26.0502 56.5167 26.8194 56.1802C27.609 55.8722 28.3843 55.3766 29.2038 54.9291C29.7014 54.6578 30.2333 54.4006 30.7404 54.2056C31.7092 53.8322 32.9491 53.3791 34.1325 53.1386C34.8962 52.9831 35.6409 52.9322 36.2621 52.988C36.5658 53.0181 37.0116 53.1208 37.4177 53.2443C37.6506 53.3147 37.8773 53.3864 38.0409 53.4727C38.2039 53.5487 38.874 53.8419 38.9578 53.9239C39.6452 54.2529 40.8175 55.177 41.5498 56.1411C41.7649 56.4248 41.9369 56.7075 42.0576 56.982C42.1201 57.1251 42.1627 57.2673 42.1833 57.4071C42.1928 57.4727 42.2075 57.5389 42.1992 57.6043C42.1992 57.6126 42.0296 57.7906 41.9435 57.8229C41.847 57.8591 41.8118 57.7206 41.794 57.6982C41.7218 57.606 41.6722 57.5044 41.6066 57.4058C40.9995 56.4987 39.9859 55.43 39.043 54.8853C38.3594 54.4908 37.642 54.137 36.8775 53.979C35.6225 53.7198 34.1256 53.7921 32.7235 54.165C31.5609 54.4737 30.3488 55.0318 29.2997 55.5848C29.0007 55.7428 28.4432 56.0669 27.9148 56.3041C27.5031 56.4887 27.0921 56.6733 26.6802 56.8584C26.2558 56.9667 25.8547 57.1637 25.4052 57.3128C24.8574 57.4949 24.2552 57.6336 23.6897 57.7589C22.5999 58.0012 21.5178 58.0363 20.4958 58.0323L19.7194 61.1699L23.8573 61.1959C24.4427 61.1444 25.195 60.905 26.0347 60.6222C26.7998 60.3637 27.6452 60.0745 28.3819 59.74C29.1629 59.3852 29.8544 58.996 30.3502 58.7055C31.2899 58.1554 32.005 57.7699 32.8167 57.5049C33.5314 57.2714 34.3591 57.1286 34.9786 57.0604C35.6401 56.9872 35.8874 57.0226 36.8078 57.0459C37.6588 57.0413 38.7565 57.0247 36.8685 56.4239C35.9749 56.1397 34.408 56.065 33.4433 56.2395C33.2576 56.2388 31.0603 57.0436 30.8853 57.1118C30.5578 57.1628 29.7423 57.5027 29.3778 57.6297C27.9372 58.1312 26.4174 58.7116 24.9349 59.0266C24.6533 59.0865 24.4461 59.147 24.236 59.1524C23.7138 59.1493 23.3047 59.229 22.7848 59.0442C23.8166 58.7818 24.8511 58.6019 25.8141 58.2787C26.1795 58.1561 26.5884 58.0481 26.938 57.8974C27.2145 57.7783 27.4944 57.6731 27.7571 57.5622C29.1332 56.9832 30.6004 56.3418 32.0596 55.828C32.7614 55.5805 33.4393 55.3302 34.1184 55.1962C35.3106 54.9609 36.4863 54.9555 37.6592 55.3598C38.8883 55.7835 39.9201 56.4015 40.7449 57.2259C41.0606 57.5499 41.318 57.8199 41.6339 58.144C41.6154 59.0891 41.2633 59.568 40.4972 59.615C40.0239 59.3525 39.6688 59.0755 39.2967 58.882C39.0133 58.7343 38.1849 58.47 37.8732 58.3927C36.9024 58.1503 36.2117 58.0935 35.2213 58.1117C33.952 58.1359 32.7824 58.404 31.691 58.8175C30.8593 59.1332 30.0853 59.5485 29.2594 59.923C28.5473 60.2458 27.8037 60.5483 27.0452 60.8232C25.417 61.3447 24.4913 61.6023 22.8323 61.8923C21.8438 62.065 20.5217 62.0026 19.5178 61.9843L19.2315 63.1429C20.0425 63.1774 21.2246 63.0522 22.3278 62.9185C23.7429 62.7466 25.0636 62.5908 26.4606 62.306C27.2704 62.1224 28.4295 61.9233 29.5997 61.616C30.5726 61.36 31.8678 60.9889 33.0762 60.6833C34.6456 60.2857 36.7372 59.9482 38.3427 59.9784C38.8863 59.9885 39.4261 60.057 40.0348 60.1137C40.158 60.2959 40.2415 60.5135 40.3388 60.7365C40.5917 61.3131 40.8916 61.9631 41.3846 62.4031C41.691 62.6556 42.0075 62.8523 42.4785 62.9915C43.1637 63.1939 43.6786 63.1149 44.133 62.8961C44.4934 62.7224 44.8293 62.4693 45.0956 62.1335C45.438 61.7022 45.7093 61.1636 46.0037 60.6528C46.9323 60.8054 50.668 61.3758 54.1743 61.9968C55.4685 62.2263 56.9593 62.4451 58.4311 62.7156C60.1898 63.0399 62.1579 63.3871 63.7083 63.6262C64.5278 63.7522 65.23 63.8577 65.7256 63.9329L66.9515 64.12L65.5473 65.7131C61.8554 65.1031 57.6515 64.4151 53.9578 63.7586C51.7729 63.3702 49.5828 62.9753 47.4132 62.5349C47.0954 62.7863 46.5885 63.6503 46.0733 64.0881C45.4528 64.6481 44.8223 65.0469 44.0917 65.1673C43.6995 65.2318 43.3074 65.2964 42.9151 65.3606L42.8999 63.2871C42.6491 63.2083 42.4241 63.1732 42.2225 63.1193C41.7378 62.9899 41.3522 62.7951 41.0009 62.5534C40.598 62.2759 40.2462 61.9329 39.9746 61.517C39.8173 61.2768 39.7129 61.0246 39.577 60.7352L38.598 60.8281C32.0485 61.8853 25.5174 63.0157 18.9822 64.1503L18.564 65.8397C19.398 65.7549 20.2294 65.5945 21.0878 65.458C22.5069 65.2319 23.9751 64.9972 25.4507 64.7467C28.6449 64.2052 31.9219 63.6878 34.9066 63.1849C36.1138 62.9781 37.265 62.7843 38.4745 62.6013C38.6445 62.9963 38.939 63.347 39.2705 63.6645C39.7532 64.1286 40.3429 64.5381 40.9788 64.8249C41.6209 65.1141 42.3113 65.2803 42.9012 65.3655L42.9033 74.8661C46.0387 74.9515 47.9906 74.782 49.8745 74.3845C51.3 74.0837 53.8779 73.4216 55.2461 72.8035C56.1449 72.3816 57.1192 71.9958 57.9361 71.5431C58.952 70.9806 59.8967 70.4008 60.8339 69.7717C61.2839 69.4699 61.7264 69.1236 62.1555 68.7946C62.8423 68.2691 63.5936 67.6342 64.3053 66.9534C64.7334 66.5445 65.122 66.0886 65.5473 65.7131L67.4389 65.9832L66.9515 64.12C67.136 63.8933 67.3212 63.6635 67.5058 63.426C67.8985 62.9214 68.2903 62.4003 68.6197 61.8969C69.7563 60.1572 70.8391 58.2267 71.663 56.3113C72.2746 54.8896 72.7912 53.4388 73.1513 51.9324C73.2995 51.314 73.6083 49.9597 73.713 49.376Z" fill="#05633B"/>
</svg>
